<?xml version="1.0" encoding="utf-8"?>
<!-- Uploaded to: SVG Repo, www.svgrepo.com, Generator: SVG Repo Mixer Tools -->
<svg width="50em" height="50em" viewBox="0 0 163 163" xmlns="http://www.w3.org/2000/svg">
    <circle cx="81.5" cy="82" r="80" fill="#fde45c"/>
    <path d="M105.24,68.37V78.82l0,0.23a7.55,7.55,0,1,1-15.09,0l0-10.56A7.54,7.54,0,0,1,105.24,68.37Z" fill="#fce7d0"/>
    <path d="M90.16,64.74v1.68l0,12.63A7.55,7.55,0,1,1,75,79l0-14.33h0A7.55,7.55,0,1,1,90.16,64.74Z" fill="#fce7d0"/>
    <path d="M105.24,68.37l0-24.57V43.13a7.55,7.55,0,1,1,15.09,0l-0.11,58.53c0,14.22-16.23,26-36.2,25.69a42.18,42.18,0,0,1-17.31-3.87,44.11,44.11,0,0,1-18-15.9L36.34,88.95c-1.58-2-3.48-4.8-1.57-8.51a7.55,7.55,0,0,1,10.17-3.23l15,13.87L60,45.8V38.25a7.55,7.55,0,0,1,15.09,0l0,22.64h0v3.8L75,79a7.55,7.55,0,1,0,15.09,0,7.55,7.55,0,1,0,15.09,0l0-.23V68.37Z" fill="#fce7d0"/>
    <path d="M112.83,35.59a7.55,7.55,0,0,0-7.55,7.54V43.8l0,24.57V78.82l0,0.23a7.52,7.52,0,0,1-1,3.78l0,18.87c0,12-11.62,22.32-27.28,25a44.77,44.77,0,0,0,7.2.68c20,0.31,36.18-11.47,36.2-25.69l0.11-58.53A7.56,7.56,0,0,0,112.83,35.59Z" fill="#f4c7ad"/>
    <path d="M69.68,38.06l0,22.43h0v4l0,14.44a7.6,7.6,0,0,0,7.55,7.6,7.48,7.48,0,0,0,2.68-.48A7.53,7.53,0,0,1,75,79l0-14.53v-4h0l0-22.43a7.65,7.65,0,0,0-10.23-7A7.46,7.46,0,0,1,69.68,38.06Z" fill="#f4c7ad"/>
    <path d="M90.16,67.91a1.5,1.5,0,0,1-1.5-1.5V64.74a6,6,0,1,0-12.09,0,1.5,1.5,0,0,1-3,0,9,9,0,1,1,18.09,0v1.67A1.5,1.5,0,0,1,90.16,67.91Z" fill="#5a150b"/>
    <path d="M82.57,88.1a9,9,0,0,1-9-9.05V60.91a1.5,1.5,0,0,1,1.5-1.5h0a1.5,1.5,0,0,1,1.5,1.5V79a6,6,0,1,0,12,0,1.5,1.5,0,0,1,3,0A9.06,9.06,0,0,1,82.57,88.1Z" fill="#5a150b"/>
    <path d="M105.26,84.49V67.36c0-3.75-3.87-6.79-8.9-6.79a10.35,10.35,0,0,0-2,.19h0c4,0.73,7,3.4,7,6.59V84.49" fill="#f4c7ad"/>
    <path d="M121.43,47.41a7.58,7.58,0,0,0-1.06.08l-0.1,54.2c0,14.22-16.23,26-36.2,25.69a42.18,42.18,0,0,1-17.31-3.87,41.51,41.51,0,0,1-13.24-9.88l3.86,5.79a44.11,44.11,0,0,0,18,15.9,42.18,42.18,0,0,0,17.31,3.87c20,0.31,36.18-11.47,36.2-25.69L129,55A7.56,7.56,0,0,0,121.43,47.41Z" fill="#f7c726"/>
    <path d="M84.82,128.89H84a43.59,43.59,0,0,1-17.91-4,45.62,45.62,0,0,1-18.59-16.43L35.13,89.84c-1.19-1.48-4.18-5.27-1.69-10.08a9.07,9.07,0,0,1,12.19-3.88,1.52,1.52,0,0,1,.33.23L58.41,87.64l0-49.4a9.06,9.06,0,0,1,9-9h0a9,9,0,0,1,9,9.05V64.71a1.5,1.5,0,0,1-1.5,1.5h0a1.5,1.5,0,0,1-1.5-1.5V38.27a6,6,0,0,0-6-6.05h0a6.05,6.05,0,0,0-6,6V45.8L61.41,91.08a1.5,1.5,0,0,1-2.52,1.1L44.08,78.45a6.06,6.06,0,0,0-8,2.68c-1.34,2.6-.41,4.63,1.4,6.88l0.08,0.11L50,106.79a42.62,42.62,0,0,0,17.35,15.37,40.66,40.66,0,0,0,16.7,3.73c11.08,0.21,21.61-3.58,28.19-10.05,4.23-4.16,6.48-9.05,6.48-14.14l0.11-58.54a6,6,0,1,0-12.09,0v0.69l0,24.54h0V78.82s0,0.09,0,.14l0,0.16A9,9,0,0,1,88.61,79l0-10.57a9,9,0,0,1,9-9h0a9,9,0,0,1,6,2.34l0-18.69a9,9,0,0,1,18.09,0l-0.11,58.54c0,5.91-2.56,11.54-7.38,16.28C107.4,124.84,96.39,128.89,84.82,128.89ZM97.69,62.45a6,6,0,0,0-6,6l0,10.57a6,6,0,1,0,12.09,0s0-.09,0-0.14V68.38a6.07,6.07,0,0,0-6-5.93h0Z" fill="#5a150b"/>
</svg>