<?xml version="1.0" encoding="utf-8"?>
<!-- Uploaded to: SVG Repo, www.svgrepo.com, Generator: SVG Repo Mixer Tools -->
<svg width="50em" height="50em" viewBox="0 0 163 163" xmlns="http://www.w3.org/2000/svg">
    <circle cx="81.5" cy="81" r="80" fill="#adeada"/>
    <path d="M104.24,67.37V77.82l0,0.23a7.55,7.55,0,1,1-15.09,0l0-10.56A7.54,7.54,0,0,1,104.24,67.37Z" fill="#fce7d0"/>
    <path d="M89.16,63.74v1.68l0,12.63A7.55,7.55,0,1,1,74,78l0-14.33h0A7.55,7.55,0,1,1,89.16,63.74Z" fill="#fce7d0"/>
    <path d="M104.24,67.37l0-24.57V42.13a7.55,7.55,0,1,1,15.09,0l-0.11,58.53c0,14.22-16.23,26-36.2,25.69a42.18,42.18,0,0,1-17.31-3.87,44.11,44.11,0,0,1-18-15.9L35.34,87.95c-1.58-2-3.48-4.8-1.57-8.51a7.55,7.55,0,0,1,10.17-3.23l15,13.87L59,44.8V37.25a7.55,7.55,0,0,1,15.09,0l0,22.64h0v3.8L74,78a7.55,7.55,0,1,0,15.09,0,7.55,7.55,0,1,0,15.09,0l0-.23V67.37Z" fill="#fce7d0"/>
    <path d="M111.83,34.59a7.55,7.55,0,0,0-7.55,7.54V42.8l0,24.57V77.82l0,0.23a7.52,7.52,0,0,1-1,3.78l0,18.87c0,12-11.62,22.32-27.28,25a44.77,44.77,0,0,0,7.2.68c20,0.31,36.18-11.47,36.2-25.69l0.11-58.53A7.56,7.56,0,0,0,111.83,34.59Z" fill="#f4c7ad"/>
    <path d="M68.68,36.81l0,22.19h0v4.26l0,14.56a7.65,7.65,0,0,0,7.55,7.67A7.47,7.47,0,0,0,78.89,85,7.51,7.51,0,0,1,74,78l0-14.77V59h0l0-22.19a7.34,7.34,0,0,0-7.53-7.32,7.46,7.46,0,0,0-2.7.38A7.38,7.38,0,0,1,68.68,36.81Z" fill="#f4c7ad"/>
    <path d="M89.16,66.91a1.5,1.5,0,0,1-1.5-1.5V63.74a6,6,0,1,0-12.09,0,1.5,1.5,0,0,1-3,0,9,9,0,1,1,18.09,0v1.67A1.5,1.5,0,0,1,89.16,66.91Z" fill="#5a150b"/>
    <path d="M81.57,87.1a9,9,0,0,1-9-9.05V59.91a1.5,1.5,0,0,1,1.5-1.5h0a1.5,1.5,0,0,1,1.5,1.5V78a6,6,0,1,0,12,0,1.5,1.5,0,0,1,3,0A9.06,9.06,0,0,1,81.57,87.1Z" fill="#5a150b"/>
    <path d="M104.26,83V66.36c0-3.75-3.87-6.79-8.9-6.79a10.35,10.35,0,0,0-2,.19h0c4,0.73,7,3.4,7,6.59V83" fill="#f4c7ad"/>
    <path d="M120.43,46.41a7.58,7.58,0,0,0-1.06.08l-0.1,54.2c0,14.22-16.23,26-36.2,25.69a42.18,42.18,0,0,1-17.31-3.87,41.51,41.51,0,0,1-13.24-9.88l3.86,5.79a44.11,44.11,0,0,0,18,15.9,42.18,42.18,0,0,0,17.31,3.87c20,0.31,36.18-11.47,36.2-25.69L128,54A7.56,7.56,0,0,0,120.43,46.41Z" fill="#95e2d6"/>
    <path d="M83.82,127.89H83a43.6,43.6,0,0,1-17.91-4,45.6,45.6,0,0,1-18.59-16.43L34.13,88.84c-1.19-1.48-4.18-5.27-1.69-10.08a9.06,9.06,0,0,1,12.19-3.88,1.49,1.49,0,0,1,.33.23L57.41,86.64l0-49.4a9.06,9.06,0,0,1,9-9h0a9,9,0,0,1,9,9.06V63.71a1.5,1.5,0,0,1-1.5,1.5h0a1.5,1.5,0,0,1-1.5-1.5V37.27A6,6,0,0,0,70.79,33a6.17,6.17,0,0,0-4.28-1.77,6.05,6.05,0,0,0-6,6V44.8L60.41,90.08a1.5,1.5,0,0,1-2.52,1.1L43.08,77.45a6.06,6.06,0,0,0-8,2.68c-1.34,2.6-.41,4.63,1.4,6.88l0.08,0.11L49,105.79a42.61,42.61,0,0,0,17.35,15.37,40.65,40.65,0,0,0,16.7,3.73c11.08,0.19,21.61-3.58,28.19-10.05,4.24-4.16,6.48-9.05,6.49-14.15l0.11-58.53a6,6,0,1,0-12.09,0v0.69l0,24.54h0V77.82s0,0.09,0,.14l0,0.16A9,9,0,0,1,87.61,78l0-10.57a9,9,0,0,1,9-9h0a9,9,0,0,1,6,2.34l0-18.69a9,9,0,0,1,18.09,0l-0.11,58.54c0,5.91-2.56,11.54-7.38,16.28C106.4,123.84,95.39,127.89,83.82,127.89ZM96.69,61.45a6,6,0,0,0-6,6l0,10.57a6,6,0,1,0,12.09,0s0-.09,0-0.14V67.38a6.07,6.07,0,0,0-6-5.93h0Z" fill="#5a150b"/>
</svg>